<?xml version="1.0" encoding="UTF-8" standalone="no"?>
<!DOCTYPE svg PUBLIC "-//W3C//DTD SVG 1.1//EN"
 "http://www.w3.org/Graphics/SVG/1.1/DTD/svg11.dtd">
<!-- Generated by graphviz version 2.40.1 (20161225.0304)
 -->
<!-- Title: dependencies Pages: 1 -->
<svg width="3016pt" height="284pt"
 viewBox="0.00 0.00 3016.00 284.00" xmlns="http://www.w3.org/2000/svg" xmlns:xlink="http://www.w3.org/1999/xlink">
<g id="graph0" class="graph" transform="scale(1 1) rotate(0) translate(4 280)">
<title>dependencies</title>
<polygon fill="#ffffff" stroke="transparent" points="-4,4 -4,-280 3012,-280 3012,4 -4,4"/>
<text text-anchor="start" x="1483.0091" y="-42.4" font-family="sans-serif" font-weight="bold" font-size="14.00" fill="#000000">Legend</text>
<polygon fill="#ffffb3" stroke="transparent" points="1270,-10 1270,-30 1290,-30 1290,-10 1270,-10"/>
<text text-anchor="start" x="1293.629" y="-15.4" font-family="sans-serif" font-size="14.00" fill="#000000"> &#160;Declarations</text>
<polygon fill="#8dd3c7" stroke="transparent" points="1383,-10 1383,-30 1403,-30 1403,-10 1383,-10"/>
<text text-anchor="start" x="1406.7251" y="-15.4" font-family="sans-serif" font-size="14.00" fill="#000000"> &#160;Module</text>
<polygon fill="#80b1d3" stroke="transparent" points="1469,-10 1469,-30 1489,-30 1489,-10 1469,-10"/>
<text text-anchor="start" x="1492.7812" y="-15.4" font-family="sans-serif" font-size="14.00" fill="#000000"> &#160;Bootstrap</text>
<polygon fill="#fdb462" stroke="transparent" points="1566,-10 1566,-30 1586,-30 1586,-10 1566,-10"/>
<text text-anchor="start" x="1589.6732" y="-15.4" font-family="sans-serif" font-size="14.00" fill="#000000"> &#160;Providers</text>
<polygon fill="#fb8072" stroke="transparent" points="1662,-10 1662,-30 1682,-30 1682,-10 1662,-10"/>
<text text-anchor="start" x="1685.7258" y="-15.4" font-family="sans-serif" font-size="14.00" fill="#000000"> &#160;Exports</text>
<g id="clust1" class="cluster">
<title>cluster_AppModule</title>
<polygon fill="none" stroke="#000000" stroke-dasharray="1,5" points="8,-70 8,-268 2746,-268 2746,-70 8,-70"/>
</g>
<g id="clust2" class="cluster">
<title>cluster_AppModule_declarations</title>
<polygon fill="none" stroke="#000000" points="872,-78 872,-130 2738,-130 2738,-78 872,-78"/>
</g>
<g id="clust18" class="cluster">
<title>cluster_AppModule_bootstrap</title>
<polygon fill="none" stroke="#000000" points="1395,-208 1395,-260 1483,-260 1483,-208 1395,-208"/>
</g>
<g id="clust19" class="cluster">
<title>cluster_AppModule_providers</title>
<polygon fill="none" stroke="#000000" points="16,-78 16,-130 864,-130 864,-78 16,-78"/>
</g>
<g id="clust20" class="cluster">
<title>cluster_LoginModule</title>
<polygon fill="none" stroke="#000000" stroke-dasharray="1,5" points="2754,-143 2754,-268 2862,-268 2862,-143 2754,-143"/>
</g>
<g id="clust24" class="cluster">
<title>cluster_LoginModule_exports</title>
<polygon fill="none" stroke="#000000" points="2773,-208 2773,-260 2843,-260 2843,-208 2773,-208"/>
</g>
<g id="clust27" class="cluster">
<title>cluster_WelcomeModule</title>
<polygon fill="none" stroke="#000000" stroke-dasharray="1,5" points="2870,-143 2870,-268 3000,-268 3000,-143 2870,-143"/>
</g>
<g id="clust31" class="cluster">
<title>cluster_WelcomeModule_exports</title>
<polygon fill="none" stroke="#000000" points="2890,-208 2890,-260 2980,-260 2980,-208 2890,-208"/>
</g>
<!-- AdjuntosSeguimientoPage -->
<g id="node1" class="node">
<title>AdjuntosSeguimientoPage</title>
<polygon fill="#ffffb3" stroke="#000000" points="1442.8187,-122 1277.1813,-122 1277.1813,-86 1442.8187,-86 1442.8187,-122"/>
<text text-anchor="middle" x="1360" y="-99.8" font-family="Times,serif" font-size="14.00" fill="#000000">AdjuntosSeguimientoPage</text>
</g>
<!-- AppModule -->
<g id="node14" class="node">
<title>AppModule</title>
<polygon fill="#8dd3c7" stroke="#000000" points="1480.6571,-187 1477.6571,-191 1456.6571,-191 1453.6571,-187 1397.3429,-187 1397.3429,-151 1480.6571,-151 1480.6571,-187"/>
<text text-anchor="middle" x="1439" y="-164.8" font-family="Times,serif" font-size="14.00" fill="#000000">AppModule</text>
</g>
<!-- AdjuntosSeguimientoPage&#45;&gt;AppModule -->
<g id="edge1" class="edge">
<title>AdjuntosSeguimientoPage&#45;&gt;AppModule</title>
<path fill="none" stroke="#000000" d="M1419.9155,-122.1061C1419.9155,-122.1061 1419.9155,-140.991 1419.9155,-140.991"/>
<polygon fill="#000000" stroke="#000000" points="1416.4156,-140.9909 1419.9155,-150.991 1423.4156,-140.991 1416.4156,-140.9909"/>
</g>
<!-- EdicionSeguimientoPage -->
<g id="node2" class="node">
<title>EdicionSeguimientoPage</title>
<polygon fill="#ffffb3" stroke="#000000" points="1259.5351,-122 1102.4649,-122 1102.4649,-86 1259.5351,-86 1259.5351,-122"/>
<text text-anchor="middle" x="1181" y="-99.8" font-family="Times,serif" font-size="14.00" fill="#000000">EdicionSeguimientoPage</text>
</g>
<!-- EdicionSeguimientoPage&#45;&gt;AppModule -->
<g id="edge2" class="edge">
<title>EdicionSeguimientoPage&#45;&gt;AppModule</title>
<path fill="none" stroke="#000000" d="M1181,-122.1243C1181,-136.7832 1181,-155 1181,-155 1181,-155 1387.2611,-155 1387.2611,-155"/>
<polygon fill="#000000" stroke="#000000" points="1387.2611,-158.5001 1397.2611,-155 1387.2611,-151.5001 1387.2611,-158.5001"/>
</g>
<!-- Login -->
<g id="node3" class="node">
<title>Login</title>
<polygon fill="#ffffb3" stroke="#000000" points="2642,-122 2588,-122 2588,-86 2642,-86 2642,-122"/>
<text text-anchor="middle" x="2615" y="-99.8" font-family="Times,serif" font-size="14.00" fill="#000000">Login</text>
</g>
<!-- Login&#45;&gt;AppModule -->
<g id="edge3" class="edge">
<title>Login&#45;&gt;AppModule</title>
<path fill="none" stroke="#000000" d="M2606,-122.0449C2606,-143.6623 2606,-177 2606,-177 2606,-177 1490.8782,-177 1490.8782,-177"/>
<polygon fill="#000000" stroke="#000000" points="1490.8783,-173.5001 1480.8782,-177 1490.8782,-180.5001 1490.8783,-173.5001"/>
</g>
<!-- LoginModule -->
<g id="node21" class="node">
<title>LoginModule</title>
<polygon fill="#8dd3c7" stroke="#000000" points="2854.493,-187 2851.493,-191 2830.493,-191 2827.493,-187 2761.507,-187 2761.507,-151 2854.493,-151 2854.493,-187"/>
<text text-anchor="middle" x="2808" y="-164.8" font-family="Times,serif" font-size="14.00" fill="#000000">LoginModule</text>
</g>
<!-- Login&#45;&gt;LoginModule -->
<g id="edge20" class="edge">
<title>Login&#45;&gt;LoginModule</title>
<path fill="none" stroke="#000000" d="M2624,-122.1532C2624,-145.7566 2624,-184 2624,-184 2624,-184 2751.0929,-184 2751.0929,-184"/>
<polygon fill="#000000" stroke="#000000" points="2751.093,-187.5001 2761.0929,-184 2751.0929,-180.5001 2751.093,-187.5001"/>
</g>
<!-- ManageAnswerPage -->
<g id="node4" class="node">
<title>ManageAnswerPage</title>
<polygon fill="#ffffb3" stroke="#000000" points="1011.8333,-122 880.1667,-122 880.1667,-86 1011.8333,-86 1011.8333,-122"/>
<text text-anchor="middle" x="946" y="-99.8" font-family="Times,serif" font-size="14.00" fill="#000000">ManageAnswerPage</text>
</g>
<!-- ManageAnswerPage&#45;&gt;AppModule -->
<g id="edge4" class="edge">
<title>ManageAnswerPage&#45;&gt;AppModule</title>
<path fill="none" stroke="#000000" d="M946,-122.0225C946,-139.3734 946,-163 946,-163 946,-163 1386.9671,-163 1386.9671,-163"/>
<polygon fill="#000000" stroke="#000000" points="1386.9671,-166.5001 1396.9671,-163 1386.9671,-159.5001 1386.9671,-166.5001"/>
</g>
<!-- ModrespuestaSeguimientoPage -->
<g id="node5" class="node">
<title>ModrespuestaSeguimientoPage</title>
<polygon fill="#ffffb3" stroke="#000000" points="2570.0154,-122 2377.9846,-122 2377.9846,-86 2570.0154,-86 2570.0154,-122"/>
<text text-anchor="middle" x="2474" y="-99.8" font-family="Times,serif" font-size="14.00" fill="#000000">ModrespuestaSeguimientoPage</text>
</g>
<!-- ModrespuestaSeguimientoPage&#45;&gt;AppModule -->
<g id="edge5" class="edge">
<title>ModrespuestaSeguimientoPage&#45;&gt;AppModule</title>
<path fill="none" stroke="#000000" d="M2474,-122.1289C2474,-142.5724 2474,-173 2474,-173 2474,-173 1490.8551,-173 1490.8551,-173"/>
<polygon fill="#000000" stroke="#000000" points="1490.8552,-169.5001 1480.8551,-173 1490.8551,-176.5001 1490.8552,-169.5001"/>
</g>
<!-- MyApp -->
<g id="node6" class="node">
<title>MyApp</title>
<polygon fill="#ffffb3" stroke="#000000" points="2359.5529,-122 2300.4471,-122 2300.4471,-86 2359.5529,-86 2359.5529,-122"/>
<text text-anchor="middle" x="2330" y="-99.8" font-family="Times,serif" font-size="14.00" fill="#000000">MyApp</text>
</g>
<!-- MyApp&#45;&gt;AppModule -->
<g id="edge6" class="edge">
<title>MyApp&#45;&gt;AppModule</title>
<path fill="none" stroke="#000000" d="M2330,-122.1061C2330,-141.3391 2330,-169 2330,-169 2330,-169 1490.7797,-169 1490.7797,-169"/>
<polygon fill="#000000" stroke="#000000" points="1490.7797,-165.5001 1480.7797,-169 1490.7797,-172.5001 1490.7797,-165.5001"/>
</g>
<!-- PreguntaSeguimientoPage -->
<g id="node7" class="node">
<title>PreguntaSeguimientoPage</title>
<polygon fill="#ffffb3" stroke="#000000" points="2281.7492,-122 2118.2508,-122 2118.2508,-86 2281.7492,-86 2281.7492,-122"/>
<text text-anchor="middle" x="2200" y="-99.8" font-family="Times,serif" font-size="14.00" fill="#000000">PreguntaSeguimientoPage</text>
</g>
<!-- PreguntaSeguimientoPage&#45;&gt;AppModule -->
<g id="edge7" class="edge">
<title>PreguntaSeguimientoPage&#45;&gt;AppModule</title>
<path fill="none" stroke="#000000" d="M2200,-122.2667C2200,-140.5552 2200,-166 2200,-166 2200,-166 1490.7265,-166 1490.7265,-166"/>
<polygon fill="#000000" stroke="#000000" points="1490.7265,-162.5001 1480.7265,-166 1490.7264,-169.5001 1490.7265,-162.5001"/>
</g>
<!-- RespuestaSeguimientoPage -->
<g id="node8" class="node">
<title>RespuestaSeguimientoPage</title>
<polygon fill="#ffffb3" stroke="#000000" points="2100.2464,-122 1929.7536,-122 1929.7536,-86 2100.2464,-86 2100.2464,-122"/>
<text text-anchor="middle" x="2015" y="-99.8" font-family="Times,serif" font-size="14.00" fill="#000000">RespuestaSeguimientoPage</text>
</g>
<!-- RespuestaSeguimientoPage&#45;&gt;AppModule -->
<g id="edge8" class="edge">
<title>RespuestaSeguimientoPage&#45;&gt;AppModule</title>
<path fill="none" stroke="#000000" d="M2015,-122.0336C2015,-139.0597 2015,-162 2015,-162 2015,-162 1490.8885,-162 1490.8885,-162"/>
<polygon fill="#000000" stroke="#000000" points="1490.8885,-158.5001 1480.8885,-162 1490.8884,-165.5001 1490.8885,-158.5001"/>
</g>
<!-- SeguimientoFeedPage -->
<g id="node9" class="node">
<title>SeguimientoFeedPage</title>
<polygon fill="#ffffb3" stroke="#000000" points="1911.6979,-122 1770.3021,-122 1770.3021,-86 1911.6979,-86 1911.6979,-122"/>
<text text-anchor="middle" x="1841" y="-99.8" font-family="Times,serif" font-size="14.00" fill="#000000">SeguimientoFeedPage</text>
</g>
<!-- SeguimientoFeedPage&#45;&gt;AppModule -->
<g id="edge9" class="edge">
<title>SeguimientoFeedPage&#45;&gt;AppModule</title>
<path fill="none" stroke="#000000" d="M1841,-122.0091C1841,-138.0494 1841,-159 1841,-159 1841,-159 1490.8834,-159 1490.8834,-159"/>
<polygon fill="#000000" stroke="#000000" points="1490.8834,-155.5001 1480.8834,-159 1490.8834,-162.5001 1490.8834,-155.5001"/>
</g>
<!-- SeguimientoTramitePage -->
<g id="node10" class="node">
<title>SeguimientoTramitePage</title>
<polygon fill="#ffffb3" stroke="#000000" points="1752.3005,-122 1593.6995,-122 1593.6995,-86 1752.3005,-86 1752.3005,-122"/>
<text text-anchor="middle" x="1673" y="-99.8" font-family="Times,serif" font-size="14.00" fill="#000000">SeguimientoTramitePage</text>
</g>
<!-- SeguimientoTramitePage&#45;&gt;AppModule -->
<g id="edge10" class="edge">
<title>SeguimientoTramitePage&#45;&gt;AppModule</title>
<path fill="none" stroke="#000000" d="M1673,-122.1243C1673,-136.7832 1673,-155 1673,-155 1673,-155 1490.8345,-155 1490.8345,-155"/>
<polygon fill="#000000" stroke="#000000" points="1490.8345,-151.5001 1480.8345,-155 1490.8345,-158.5001 1490.8345,-151.5001"/>
</g>
<!-- TramiteFeedPage -->
<g id="node11" class="node">
<title>TramiteFeedPage</title>
<polygon fill="#ffffb3" stroke="#000000" points="1575.2381,-122 1460.7619,-122 1460.7619,-86 1575.2381,-86 1575.2381,-122"/>
<text text-anchor="middle" x="1518" y="-99.8" font-family="Times,serif" font-size="14.00" fill="#000000">TramiteFeedPage</text>
</g>
<!-- TramiteFeedPage&#45;&gt;AppModule -->
<g id="edge11" class="edge">
<title>TramiteFeedPage&#45;&gt;AppModule</title>
<path fill="none" stroke="#000000" d="M1470.7297,-122.1061C1470.7297,-122.1061 1470.7297,-140.991 1470.7297,-140.991"/>
<polygon fill="#000000" stroke="#000000" points="1467.2297,-140.9909 1470.7297,-150.991 1474.2297,-140.991 1467.2297,-140.9909"/>
</g>
<!-- Ubicar -->
<g id="node12" class="node">
<title>Ubicar</title>
<polygon fill="#ffffb3" stroke="#000000" points="1084.0871,-122 1029.9129,-122 1029.9129,-86 1084.0871,-86 1084.0871,-122"/>
<text text-anchor="middle" x="1057" y="-99.8" font-family="Times,serif" font-size="14.00" fill="#000000">Ubicar</text>
</g>
<!-- Ubicar&#45;&gt;AppModule -->
<g id="edge12" class="edge">
<title>Ubicar&#45;&gt;AppModule</title>
<path fill="none" stroke="#000000" d="M1057,-122.0091C1057,-138.0494 1057,-159 1057,-159 1057,-159 1387.0266,-159 1387.0266,-159"/>
<polygon fill="#000000" stroke="#000000" points="1387.0266,-162.5001 1397.0266,-159 1387.0266,-155.5001 1387.0266,-162.5001"/>
</g>
<!-- Welcome -->
<g id="node13" class="node">
<title>Welcome</title>
<polygon fill="#ffffb3" stroke="#000000" points="2729.6405,-122 2660.3595,-122 2660.3595,-86 2729.6405,-86 2729.6405,-122"/>
<text text-anchor="middle" x="2695" y="-99.8" font-family="Times,serif" font-size="14.00" fill="#000000">Welcome</text>
</g>
<!-- Welcome&#45;&gt;AppModule -->
<g id="edge13" class="edge">
<title>Welcome&#45;&gt;AppModule</title>
<path fill="none" stroke="#000000" d="M2695,-122.0109C2695,-144.4852 2695,-180 2695,-180 2695,-180 1490.7894,-180 1490.7894,-180"/>
<polygon fill="#000000" stroke="#000000" points="1490.7894,-176.5001 1480.7894,-180 1490.7893,-183.5001 1490.7894,-176.5001"/>
</g>
<!-- WelcomeModule -->
<g id="node23" class="node">
<title>WelcomeModule</title>
<polygon fill="#8dd3c7" stroke="#000000" points="2991.6896,-187 2988.6896,-191 2967.6896,-191 2964.6896,-187 2878.3104,-187 2878.3104,-151 2991.6896,-151 2991.6896,-187"/>
<text text-anchor="middle" x="2935" y="-164.8" font-family="Times,serif" font-size="14.00" fill="#000000">WelcomeModule</text>
</g>
<!-- Welcome&#45;&gt;WelcomeModule -->
<g id="edge22" class="edge">
<title>Welcome&#45;&gt;WelcomeModule</title>
<path fill="none" stroke="#000000" d="M2729.6417,-104C2796.1051,-104 2935,-104 2935,-104 2935,-104 2935,-140.8939 2935,-140.8939"/>
<polygon fill="#000000" stroke="#000000" points="2931.5001,-140.8938 2935,-150.8939 2938.5001,-140.8939 2931.5001,-140.8938"/>
</g>
<!-- IonicApp  -->
<g id="node15" class="node">
<title>IonicApp </title>
<polygon fill="#80b1d3" stroke="#000000" points="1475.3734,-252 1402.6266,-252 1402.6266,-216 1475.3734,-216 1475.3734,-252"/>
<text text-anchor="middle" x="1439" y="-229.8" font-family="Times,serif" font-size="14.00" fill="#000000">IonicApp </text>
</g>
<!-- AppModule&#45;&gt;IonicApp  -->
<g id="edge14" class="edge">
<title>AppModule&#45;&gt;IonicApp </title>
<path fill="none" stroke="#000000" stroke-dasharray="1,5" d="M1439,-187.1061C1439,-187.1061 1439,-205.991 1439,-205.991"/>
<polygon fill="#000000" stroke="#000000" points="1435.5001,-205.9909 1439,-215.991 1442.5001,-205.991 1435.5001,-205.9909"/>
</g>
<!-- AnswerService -->
<g id="node16" class="node">
<title>AnswerService</title>
<ellipse fill="#fdb462" stroke="#000000" cx="626" cy="-104" rx="70.0403" ry="18"/>
<text text-anchor="middle" x="626" y="-99.8" font-family="Times,serif" font-size="14.00" fill="#000000">AnswerService</text>
</g>
<!-- AnswerService&#45;&gt;AppModule -->
<g id="edge15" class="edge">
<title>AnswerService&#45;&gt;AppModule</title>
<path fill="none" stroke="#000000" d="M626,-122.308C626,-142.1455 626,-171 626,-171 626,-171 1387.284,-171 1387.284,-171"/>
<polygon fill="#000000" stroke="#000000" points="1387.284,-174.5001 1397.284,-171 1387.2839,-167.5001 1387.284,-174.5001"/>
</g>
<!-- AuthenticationService -->
<g id="node17" class="node">
<title>AuthenticationService</title>
<ellipse fill="#fdb462" stroke="#000000" cx="441" cy="-104" rx="97.2683" ry="18"/>
<text text-anchor="middle" x="441" y="-99.8" font-family="Times,serif" font-size="14.00" fill="#000000">AuthenticationService</text>
</g>
<!-- AuthenticationService&#45;&gt;AppModule -->
<g id="edge16" class="edge">
<title>AuthenticationService&#45;&gt;AppModule</title>
<path fill="none" stroke="#000000" d="M441,-122.2843C441,-143.3211 441,-175 441,-175 441,-175 1387.0717,-175 1387.0717,-175"/>
<polygon fill="#000000" stroke="#000000" points="1387.0718,-178.5001 1397.0717,-175 1387.0717,-171.5001 1387.0718,-178.5001"/>
</g>
<!-- SeguimientoService -->
<g id="node18" class="node">
<title>SeguimientoService</title>
<ellipse fill="#fdb462" stroke="#000000" cx="237" cy="-104" rx="88.6217" ry="18"/>
<text text-anchor="middle" x="237" y="-99.8" font-family="Times,serif" font-size="14.00" fill="#000000">SeguimientoService</text>
</g>
<!-- SeguimientoService&#45;&gt;AppModule -->
<g id="edge17" class="edge">
<title>SeguimientoService&#45;&gt;AppModule</title>
<path fill="none" stroke="#000000" d="M237,-122.1554C237,-144.3519 237,-179 237,-179 237,-179 1387.2754,-179 1387.2754,-179"/>
<polygon fill="#000000" stroke="#000000" points="1387.2754,-182.5001 1397.2754,-179 1387.2753,-175.5001 1387.2754,-182.5001"/>
</g>
<!-- ServiceUrl -->
<g id="node19" class="node">
<title>ServiceUrl</title>
<ellipse fill="#fdb462" stroke="#000000" cx="77" cy="-104" rx="52.7238" ry="18"/>
<text text-anchor="middle" x="77" y="-99.8" font-family="Times,serif" font-size="14.00" fill="#000000">ServiceUrl</text>
</g>
<!-- ServiceUrl&#45;&gt;AppModule -->
<g id="edge18" class="edge">
<title>ServiceUrl&#45;&gt;AppModule</title>
<path fill="none" stroke="#000000" d="M77,-122.3228C77,-145.6602 77,-183 77,-183 77,-183 1387.1202,-183 1387.1202,-183"/>
<polygon fill="#000000" stroke="#000000" points="1387.1203,-186.5001 1397.1202,-183 1387.1202,-179.5001 1387.1203,-186.5001"/>
</g>
<!-- TramiteService -->
<g id="node20" class="node">
<title>TramiteService</title>
<ellipse fill="#fdb462" stroke="#000000" cx="785" cy="-104" rx="70.6181" ry="18"/>
<text text-anchor="middle" x="785" y="-99.8" font-family="Times,serif" font-size="14.00" fill="#000000">TramiteService</text>
</g>
<!-- TramiteService&#45;&gt;AppModule -->
<g id="edge19" class="edge">
<title>TramiteService&#45;&gt;AppModule</title>
<path fill="none" stroke="#000000" d="M785,-122.2222C785,-140.8285 785,-167 785,-167 785,-167 1387.0945,-167 1387.0945,-167"/>
<polygon fill="#000000" stroke="#000000" points="1387.0945,-170.5001 1397.0945,-167 1387.0944,-163.5001 1387.0945,-170.5001"/>
</g>
<!-- Login  -->
<g id="node22" class="node">
<title>Login </title>
<polygon fill="#fb8072" stroke="#000000" points="2835,-252 2781,-252 2781,-216 2835,-216 2835,-252"/>
<text text-anchor="middle" x="2808" y="-229.8" font-family="Times,serif" font-size="14.00" fill="#000000">Login </text>
</g>
<!-- LoginModule&#45;&gt;Login  -->
<g id="edge21" class="edge">
<title>LoginModule&#45;&gt;Login </title>
<path fill="none" stroke="#000000" stroke-dasharray="5,2" d="M2808,-187.1061C2808,-187.1061 2808,-205.991 2808,-205.991"/>
<polygon fill="#000000" stroke="#000000" points="2804.5001,-205.9909 2808,-215.991 2811.5001,-205.991 2804.5001,-205.9909"/>
</g>
<!-- Welcome  -->
<g id="node24" class="node">
<title>Welcome </title>
<polygon fill="#fb8072" stroke="#000000" points="2971.6397,-252 2898.3603,-252 2898.3603,-216 2971.6397,-216 2971.6397,-252"/>
<text text-anchor="middle" x="2935" y="-229.8" font-family="Times,serif" font-size="14.00" fill="#000000">Welcome </text>
</g>
<!-- WelcomeModule&#45;&gt;Welcome  -->
<g id="edge23" class="edge">
<title>WelcomeModule&#45;&gt;Welcome </title>
<path fill="none" stroke="#000000" stroke-dasharray="5,2" d="M2935,-187.1061C2935,-187.1061 2935,-205.991 2935,-205.991"/>
<polygon fill="#000000" stroke="#000000" points="2931.5001,-205.9909 2935,-215.991 2938.5001,-205.991 2931.5001,-205.9909"/>
</g>
</g>
</svg>
